<svg xmlns="http://www.w3.org/2000/svg" xmlns:xlink="http://www.w3.org/1999/xlink" width="101" zoomAndPan="magnify" viewBox="0 0 75.75 83.249999" height="111" preserveAspectRatio="xMidYMid meet" version="1.0"><defs><g/><clipPath id="f54e567c4e"><path d="M 39.214844 3.835938 L 53.214844 3.835938 L 53.214844 19.859375 L 39.214844 19.859375 Z M 39.214844 3.835938 " clip-rule="nonzero"/></clipPath><clipPath id="c991deb445"><path d="M 53.214844 11.835938 L 39.214844 19.835938 L 39.214844 3.835938 Z M 53.214844 11.835938 " clip-rule="nonzero"/></clipPath><clipPath id="2925db9172"><path d="M 25.324219 3.921875 L 39.324219 3.921875 L 39.324219 19.941406 L 25.324219 19.941406 Z M 25.324219 3.921875 " clip-rule="nonzero"/></clipPath><clipPath id="f4aef940aa"><path d="M 25.324219 11.945312 L 39.324219 3.945312 L 39.324219 19.941406 Z M 25.324219 11.945312 " clip-rule="nonzero"/></clipPath><clipPath id="6cb64fab7b"><path d="M 25 11 L 40 11 L 40 28 L 25 28 Z M 25 11 " clip-rule="nonzero"/></clipPath><clipPath id="805c4e266f"><path d="M 18.46875 15.789062 L 32.351562 7.785156 L 39.34375 19.914062 L 25.460938 27.917969 Z M 18.46875 15.789062 " clip-rule="nonzero"/></clipPath><clipPath id="c59ec08a15"><path d="M 25.398438 11.792969 L 39.324219 19.925781 L 25.460938 27.917969 Z M 25.398438 11.792969 " clip-rule="nonzero"/></clipPath><clipPath id="3fa4881c72"><path d="M 25.429688 19.707031 L 39.429688 19.707031 L 39.429688 35.730469 L 25.429688 35.730469 Z M 25.429688 19.707031 " clip-rule="nonzero"/></clipPath><clipPath id="741aacb361"><path d="M 25.429688 27.730469 L 39.429688 19.730469 L 39.429688 35.730469 Z M 25.429688 27.730469 " clip-rule="nonzero"/></clipPath><clipPath id="9c13632516"><path d="M 39.324219 19.730469 L 53.324219 19.730469 L 53.324219 35.753906 L 39.324219 35.753906 Z M 39.324219 19.730469 " clip-rule="nonzero"/></clipPath><clipPath id="fd2eabd707"><path d="M 53.324219 27.730469 L 39.324219 35.730469 L 39.324219 19.730469 Z M 53.324219 27.730469 " clip-rule="nonzero"/></clipPath><clipPath id="f87ba3b52a"><path d="M 39.324219 27.601562 L 53.324219 27.601562 L 53.324219 43.621094 L 39.324219 43.621094 Z M 39.324219 27.601562 " clip-rule="nonzero"/></clipPath><clipPath id="ec3acd827c"><path d="M 39.324219 35.621094 L 53.324219 27.625 L 53.324219 43.621094 Z M 39.324219 35.621094 " clip-rule="nonzero"/></clipPath><clipPath id="94721a75ca"><path d="M 39 35 L 54 35 L 54 52 L 39 52 Z M 39 35 " clip-rule="nonzero"/></clipPath><clipPath id="8c6f6ed5ed"><path d="M 32.414062 39.550781 L 46.179688 31.351562 L 53.34375 43.378906 L 39.574219 51.578125 Z M 32.414062 39.550781 " clip-rule="nonzero"/></clipPath><clipPath id="b9cb964b87"><path d="M 39.285156 35.457031 L 53.324219 43.390625 L 39.574219 51.578125 Z M 39.285156 35.457031 " clip-rule="nonzero"/></clipPath><clipPath id="c9e2644355"><path d="M 25 35 L 40 35 L 40 52 L 25 52 Z M 25 35 " clip-rule="nonzero"/></clipPath><clipPath id="cec001afbb"><path d="M 25.792969 52.027344 L 25.324219 36.011719 L 39.316406 35.597656 L 39.785156 51.617188 Z M 25.792969 52.027344 " clip-rule="nonzero"/></clipPath><clipPath id="b72cf4391f"><path d="M 25.558594 44.03125 L 39.316406 35.621094 L 39.785156 51.617188 Z M 25.558594 44.03125 " clip-rule="nonzero"/></clipPath></defs><g clip-path="url(#f54e567c4e)"><g clip-path="url(#c991deb445)"><path fill="#eecdfc" d="M 53.214844 3.835938 L 53.214844 19.859375 L 39.214844 19.859375 L 39.214844 3.835938 Z M 53.214844 3.835938 " fill-opacity="1" fill-rule="nonzero"/></g></g><g clip-path="url(#2925db9172)"><g clip-path="url(#f4aef940aa)"><path fill="#db95f7" d="M 25.324219 19.941406 L 25.324219 3.921875 L 39.324219 3.921875 L 39.324219 19.941406 Z M 25.324219 19.941406 " fill-opacity="1" fill-rule="nonzero"/></g></g><g clip-path="url(#6cb64fab7b)"><g clip-path="url(#805c4e266f)"><g clip-path="url(#c59ec08a15)"><path fill="#ce62f4" d="M 18.46875 15.789062 L 32.351562 7.785156 L 39.34375 19.914062 L 25.460938 27.917969 Z M 18.46875 15.789062 " fill-opacity="1" fill-rule="nonzero"/></g></g></g><g clip-path="url(#3fa4881c72)"><g clip-path="url(#741aacb361)"><path fill="#bd3cf2" d="M 25.429688 35.730469 L 25.429688 19.707031 L 39.429688 19.707031 L 39.429688 35.730469 Z M 25.429688 35.730469 " fill-opacity="1" fill-rule="nonzero"/></g></g><g clip-path="url(#9c13632516)"><g clip-path="url(#fd2eabd707)"><path fill="#ae29ed" d="M 53.324219 19.730469 L 53.324219 35.753906 L 39.324219 35.753906 L 39.324219 19.730469 Z M 53.324219 19.730469 " fill-opacity="1" fill-rule="nonzero"/></g></g><g clip-path="url(#f87ba3b52a)"><g clip-path="url(#ec3acd827c)"><path fill="#9f1ed4" d="M 39.324219 43.621094 L 39.324219 27.601562 L 53.324219 27.601562 L 53.324219 43.621094 Z M 39.324219 43.621094 " fill-opacity="1" fill-rule="nonzero"/></g></g><g clip-path="url(#94721a75ca)"><g clip-path="url(#8c6f6ed5ed)"><g clip-path="url(#b9cb964b87)"><path fill="#761ba7" d="M 32.414062 39.550781 L 46.179688 31.351562 L 53.34375 43.378906 L 39.574219 51.578125 Z M 32.414062 39.550781 " fill-opacity="1" fill-rule="nonzero"/></g></g></g><g clip-path="url(#c9e2644355)"><g clip-path="url(#cec001afbb)"><g clip-path="url(#b72cf4391f)"><path fill="#58167c" d="M 25.792969 52.027344 L 25.324219 36.011719 L 39.316406 35.597656 L 39.785156 51.617188 Z M 25.792969 52.027344 " fill-opacity="1" fill-rule="nonzero"/></g></g></g><g fill="#000000" fill-opacity="1"><g transform="translate(1.637016, 66.050341)"><g><path d="M 5.75 -11.09375 C 7.144531 -11.09375 8.289062 -10.8125 9.1875 -10.25 C 10.09375 -9.6875 10.554688 -8.847656 10.578125 -7.734375 L 10.578125 -7.546875 L 7.296875 -7.546875 L 7.296875 -7.609375 C 7.296875 -7.929688 7.175781 -8.195312 6.9375 -8.40625 C 6.707031 -8.613281 6.359375 -8.71875 5.890625 -8.71875 C 5.421875 -8.71875 5.0625 -8.648438 4.8125 -8.515625 C 4.5625 -8.378906 4.4375 -8.210938 4.4375 -8.015625 C 4.4375 -7.722656 4.601562 -7.507812 4.9375 -7.375 C 5.28125 -7.238281 5.828125 -7.097656 6.578125 -6.953125 C 7.453125 -6.765625 8.171875 -6.570312 8.734375 -6.375 C 9.304688 -6.1875 9.800781 -5.867188 10.21875 -5.421875 C 10.644531 -4.972656 10.863281 -4.367188 10.875 -3.609375 C 10.875 -2.328125 10.4375 -1.375 9.5625 -0.75 C 8.695312 -0.125 7.535156 0.1875 6.078125 0.1875 C 4.367188 0.1875 3.039062 -0.09375 2.09375 -0.65625 C 1.15625 -1.226562 0.6875 -2.238281 0.6875 -3.6875 L 4 -3.6875 C 4 -3.144531 4.140625 -2.78125 4.421875 -2.59375 C 4.710938 -2.40625 5.15625 -2.3125 5.75 -2.3125 C 6.195312 -2.3125 6.566406 -2.359375 6.859375 -2.453125 C 7.148438 -2.546875 7.296875 -2.742188 7.296875 -3.046875 C 7.296875 -3.304688 7.132812 -3.503906 6.8125 -3.640625 C 6.488281 -3.773438 5.960938 -3.914062 5.234375 -4.0625 C 4.347656 -4.25 3.613281 -4.445312 3.03125 -4.65625 C 2.445312 -4.863281 1.9375 -5.203125 1.5 -5.671875 C 1.070312 -6.148438 0.859375 -6.796875 0.859375 -7.609375 C 0.859375 -8.804688 1.316406 -9.6875 2.234375 -10.25 C 3.160156 -10.8125 4.332031 -11.09375 5.75 -11.09375 Z M 5.75 -11.09375 "/></g></g></g><g fill="#000000" fill-opacity="1"><g transform="translate(13.083127, 66.050341)"><g><path d="M 7.03125 0 L 6.8125 -1.265625 C 6.488281 -0.816406 6.054688 -0.460938 5.515625 -0.203125 C 4.984375 0.0546875 4.425781 0.1875 3.84375 0.1875 C 2.863281 0.1875 2.128906 -0.078125 1.640625 -0.609375 C 1.160156 -1.148438 0.921875 -1.929688 0.921875 -2.953125 L 0.921875 -8.375 L 4.078125 -8.375 L 4.078125 -3.328125 C 4.078125 -2.972656 4.164062 -2.6875 4.34375 -2.46875 C 4.53125 -2.25 4.796875 -2.140625 5.140625 -2.140625 C 5.523438 -2.140625 5.835938 -2.265625 6.078125 -2.515625 C 6.328125 -2.773438 6.453125 -3.085938 6.453125 -3.453125 L 6.453125 -8.375 L 9.609375 -8.375 L 9.609375 0 Z M 7.03125 0 "/></g></g></g><g fill="#000000" fill-opacity="1"><g transform="translate(23.657305, 66.050341)"><g><path d="M 4.125 -7.59375 C 4.726562 -8.238281 5.507812 -8.5625 6.46875 -8.5625 C 7.601562 -8.5625 8.472656 -8.191406 9.078125 -7.453125 C 9.691406 -6.722656 10 -5.640625 10 -4.203125 C 10 -2.753906 9.691406 -1.660156 9.078125 -0.921875 C 8.472656 -0.179688 7.601562 0.1875 6.46875 0.1875 C 5.300781 0.1875 4.414062 -0.269531 3.8125 -1.1875 L 3.53125 0 L 0.96875 0 L 0.96875 -11.5 L 4.125 -11.5 Z M 5.484375 -6.234375 C 5.023438 -6.234375 4.675781 -6.066406 4.4375 -5.734375 C 4.207031 -5.398438 4.09375 -4.96875 4.09375 -4.4375 L 4.09375 -3.921875 C 4.09375 -3.390625 4.207031 -2.957031 4.4375 -2.625 C 4.675781 -2.300781 5.023438 -2.140625 5.484375 -2.140625 C 6.390625 -2.140625 6.84375 -2.679688 6.84375 -3.765625 L 6.84375 -4.59375 C 6.84375 -5.6875 6.390625 -6.234375 5.484375 -6.234375 Z M 5.484375 -6.234375 "/></g></g></g><g fill="#000000" fill-opacity="1"><g transform="translate(34.231483, 66.050341)"><g><path d="M 12.0625 -8.5625 C 13.019531 -8.5625 13.734375 -8.289062 14.203125 -7.75 C 14.679688 -7.207031 14.921875 -6.429688 14.921875 -5.421875 L 14.921875 0 L 11.765625 0 L 11.765625 -5.046875 C 11.765625 -5.398438 11.675781 -5.6875 11.5 -5.90625 C 11.332031 -6.125 11.085938 -6.234375 10.765625 -6.234375 C 10.398438 -6.234375 10.097656 -6.101562 9.859375 -5.84375 C 9.628906 -5.59375 9.515625 -5.285156 9.515625 -4.921875 L 9.515625 0 L 6.359375 0 L 6.359375 -5.046875 C 6.359375 -5.398438 6.269531 -5.6875 6.09375 -5.90625 C 5.925781 -6.125 5.679688 -6.234375 5.359375 -6.234375 C 4.992188 -6.234375 4.691406 -6.101562 4.453125 -5.84375 C 4.222656 -5.59375 4.109375 -5.285156 4.109375 -4.921875 L 4.109375 0 L 0.953125 0 L 0.953125 -8.375 L 3.53125 -8.375 L 3.75 -7.125 C 4.0625 -7.5625 4.476562 -7.910156 5 -8.171875 C 5.519531 -8.429688 6.070312 -8.5625 6.65625 -8.5625 C 7.914062 -8.5625 8.765625 -8.082031 9.203125 -7.125 C 9.523438 -7.5625 9.941406 -7.910156 10.453125 -8.171875 C 10.972656 -8.429688 11.507812 -8.5625 12.0625 -8.5625 Z M 12.0625 -8.5625 "/></g></g></g><g fill="#000000" fill-opacity="1"><g transform="translate(50.084823, 66.050341)"><g><path d="M 1.0625 -9.359375 L 1.0625 -11.5 L 4.21875 -11.5 L 4.21875 -9.359375 Z M 1.0625 0 L 1.0625 -8.375 L 4.21875 -8.375 L 4.21875 0 Z M 1.0625 0 "/></g></g></g><g fill="#000000" fill-opacity="1"><g transform="translate(55.363984, 66.050341)"><g><path d="M 6.53125 -8.375 L 6.53125 -6.234375 L 4.75 -6.234375 L 4.75 -3.046875 C 4.75 -2.660156 4.8125 -2.378906 4.9375 -2.203125 C 5.070312 -2.035156 5.304688 -1.953125 5.640625 -1.953125 L 6.53125 -1.953125 L 6.53125 -0.09375 C 6.28125 -0.0078125 5.953125 0.0546875 5.546875 0.109375 C 5.148438 0.160156 4.800781 0.1875 4.5 0.1875 C 3.570312 0.1875 2.859375 0.0195312 2.359375 -0.3125 C 1.859375 -0.65625 1.609375 -1.234375 1.609375 -2.046875 L 1.609375 -6.234375 L 0.421875 -6.234375 L 0.421875 -8.375 L 1.734375 -8.375 L 2.40625 -10.90625 L 4.75 -10.90625 L 4.75 -8.375 Z M 6.53125 -8.375 "/></g></g></g><g fill="#000000" fill-opacity="1"><g transform="translate(62.402866, 66.050341)"><g><path d="M 5.765625 -2.609375 L 10.953125 -2.609375 L 10.953125 0 L 0.375 0 L 0.375 -1.125 L 5.4375 -8.296875 L 0.765625 -8.296875 L 0.765625 -10.90625 L 10.828125 -10.90625 L 10.828125 -9.78125 Z M 5.765625 -2.609375 "/></g></g></g></svg>