<svg xmlns="http://www.w3.org/2000/svg" xmlns:xlink="http://www.w3.org/1999/xlink" width="135" zoomAndPan="magnify" viewBox="0 0 101.25 30.000001" height="40" preserveAspectRatio="xMidYMid meet" version="1.0"><defs><g/><clipPath id="ee624b0bc0"><path d="M 13.765625 0 L 22.199219 0 L 22.199219 9.652344 L 13.765625 9.652344 Z M 13.765625 0 " clip-rule="nonzero"/></clipPath><clipPath id="25cd0fc26d"><path d="M 22.199219 4.820312 L 13.765625 9.636719 L 13.765625 0 Z M 22.199219 4.820312 " clip-rule="nonzero"/></clipPath><clipPath id="6cb575e46d"><path d="M 5.398438 0.046875 L 13.835938 0.046875 L 13.835938 9.699219 L 5.398438 9.699219 Z M 5.398438 0.046875 " clip-rule="nonzero"/></clipPath><clipPath id="bb260f63bd"><path d="M 5.398438 4.878906 L 13.835938 0.0585938 L 13.835938 9.699219 Z M 5.398438 4.878906 " clip-rule="nonzero"/></clipPath><clipPath id="699358b663"><path d="M 5 4 L 14 4 L 14 15 L 5 15 Z M 5 4 " clip-rule="nonzero"/></clipPath><clipPath id="5a616cc75a"><path d="M 1.269531 7.199219 L 9.632812 2.378906 L 13.847656 9.683594 L 5.484375 14.507812 Z M 1.269531 7.199219 " clip-rule="nonzero"/></clipPath><clipPath id="1787f3a688"><path d="M 5.445312 4.792969 L 13.835938 9.691406 L 5.484375 14.507812 Z M 5.445312 4.792969 " clip-rule="nonzero"/></clipPath><clipPath id="eeb6cf0d2b"><path d="M 5.464844 9.554688 L 13.898438 9.554688 L 13.898438 19.210938 L 5.464844 19.210938 Z M 5.464844 9.554688 " clip-rule="nonzero"/></clipPath><clipPath id="788923cb51"><path d="M 5.464844 14.390625 L 13.898438 9.570312 L 13.898438 19.210938 Z M 5.464844 14.390625 " clip-rule="nonzero"/></clipPath><clipPath id="a1bcf57c10"><path d="M 13.828125 9.574219 L 22.261719 9.574219 L 22.261719 19.226562 L 13.828125 19.226562 Z M 13.828125 9.574219 " clip-rule="nonzero"/></clipPath><clipPath id="8ce71e51b8"><path d="M 22.261719 14.394531 L 13.828125 19.214844 L 13.828125 9.574219 Z M 22.261719 14.394531 " clip-rule="nonzero"/></clipPath><clipPath id="65aa379656"><path d="M 13.835938 14.3125 L 22.269531 14.3125 L 22.269531 23.964844 L 13.835938 23.964844 Z M 13.835938 14.3125 " clip-rule="nonzero"/></clipPath><clipPath id="31e1a9047e"><path d="M 13.835938 19.144531 L 22.269531 14.324219 L 22.269531 23.964844 Z M 13.835938 19.144531 " clip-rule="nonzero"/></clipPath><clipPath id="d3f0598753"><path d="M 13 19 L 23 19 L 23 29 L 13 29 Z M 13 19 " clip-rule="nonzero"/></clipPath><clipPath id="e44deca8f5"><path d="M 9.671875 21.515625 L 17.964844 16.574219 L 22.28125 23.820312 L 13.988281 28.761719 Z M 9.671875 21.515625 " clip-rule="nonzero"/></clipPath><clipPath id="2d3d49c810"><path d="M 13.8125 19.046875 L 22.269531 23.828125 L 13.988281 28.761719 Z M 13.8125 19.046875 " clip-rule="nonzero"/></clipPath><clipPath id="11dc537675"><path d="M 5 19 L 15 19 L 15 29 L 5 29 Z M 5 19 " clip-rule="nonzero"/></clipPath><clipPath id="a935e3282f"><path d="M 5.683594 29.027344 L 5.398438 19.378906 L 13.832031 19.132812 L 14.113281 28.78125 Z M 5.683594 29.027344 " clip-rule="nonzero"/></clipPath><clipPath id="340dd99076"><path d="M 5.542969 24.210938 L 13.832031 19.144531 L 14.113281 28.78125 Z M 5.542969 24.210938 " clip-rule="nonzero"/></clipPath></defs><g clip-path="url(#ee624b0bc0)"><g clip-path="url(#25cd0fc26d)"><path fill="#eecdfc" d="M 22.199219 0 L 22.199219 9.652344 L 13.765625 9.652344 L 13.765625 0 Z M 22.199219 0 " fill-opacity="1" fill-rule="nonzero"/></g></g><g clip-path="url(#6cb575e46d)"><g clip-path="url(#bb260f63bd)"><path fill="#db95f7" d="M 5.398438 9.699219 L 5.398438 0.046875 L 13.835938 0.046875 L 13.835938 9.699219 Z M 5.398438 9.699219 " fill-opacity="1" fill-rule="nonzero"/></g></g><g clip-path="url(#699358b663)"><g clip-path="url(#5a616cc75a)"><g clip-path="url(#1787f3a688)"><path fill="#ce62f4" d="M 1.269531 7.199219 L 9.632812 2.378906 L 13.847656 9.683594 L 5.484375 14.507812 Z M 1.269531 7.199219 " fill-opacity="1" fill-rule="nonzero"/></g></g></g><g clip-path="url(#eeb6cf0d2b)"><g clip-path="url(#788923cb51)"><path fill="#bd3cf2" d="M 5.464844 19.210938 L 5.464844 9.554688 L 13.898438 9.554688 L 13.898438 19.210938 Z M 5.464844 19.210938 " fill-opacity="1" fill-rule="nonzero"/></g></g><g clip-path="url(#a1bcf57c10)"><g clip-path="url(#8ce71e51b8)"><path fill="#ae29ed" d="M 22.261719 9.574219 L 22.261719 19.226562 L 13.828125 19.226562 L 13.828125 9.574219 Z M 22.261719 9.574219 " fill-opacity="1" fill-rule="nonzero"/></g></g><g clip-path="url(#65aa379656)"><g clip-path="url(#31e1a9047e)"><path fill="#9f1ed4" d="M 13.835938 23.964844 L 13.835938 14.3125 L 22.269531 14.3125 L 22.269531 23.964844 Z M 13.835938 23.964844 " fill-opacity="1" fill-rule="nonzero"/></g></g><g clip-path="url(#d3f0598753)"><g clip-path="url(#e44deca8f5)"><g clip-path="url(#2d3d49c810)"><path fill="#761ba7" d="M 9.671875 21.515625 L 17.964844 16.574219 L 22.28125 23.820312 L 13.988281 28.761719 Z M 9.671875 21.515625 " fill-opacity="1" fill-rule="nonzero"/></g></g></g><g clip-path="url(#11dc537675)"><g clip-path="url(#a935e3282f)"><g clip-path="url(#340dd99076)"><path fill="#58167c" d="M 5.683594 29.027344 L 5.398438 19.378906 L 13.832031 19.132812 L 14.113281 28.78125 Z M 5.683594 29.027344 " fill-opacity="1" fill-rule="nonzero"/></g></g></g><g fill="#000000" fill-opacity="1"><g transform="translate(24.644597, 20.62065)"><g><path d="M 5.9375 -11.46875 C 7.382812 -11.46875 8.570312 -11.171875 9.5 -10.578125 C 10.425781 -9.992188 10.898438 -9.128906 10.921875 -7.984375 L 10.921875 -7.796875 L 7.53125 -7.796875 L 7.53125 -7.859375 C 7.53125 -8.179688 7.410156 -8.453125 7.171875 -8.671875 C 6.929688 -8.890625 6.566406 -9 6.078125 -9 C 5.597656 -9 5.226562 -8.925781 4.96875 -8.78125 C 4.707031 -8.644531 4.578125 -8.472656 4.578125 -8.265625 C 4.578125 -7.972656 4.753906 -7.753906 5.109375 -7.609375 C 5.460938 -7.472656 6.023438 -7.328125 6.796875 -7.171875 C 7.703125 -6.984375 8.445312 -6.785156 9.03125 -6.578125 C 9.613281 -6.378906 10.125 -6.050781 10.5625 -5.59375 C 11 -5.132812 11.222656 -4.515625 11.234375 -3.734375 C 11.234375 -2.398438 10.78125 -1.410156 9.875 -0.765625 C 8.976562 -0.117188 7.773438 0.203125 6.265625 0.203125 C 4.515625 0.203125 3.148438 -0.09375 2.171875 -0.6875 C 1.191406 -1.28125 0.703125 -2.320312 0.703125 -3.8125 L 4.125 -3.8125 C 4.125 -3.25 4.269531 -2.867188 4.5625 -2.671875 C 4.863281 -2.484375 5.320312 -2.390625 5.9375 -2.390625 C 6.394531 -2.390625 6.773438 -2.4375 7.078125 -2.53125 C 7.378906 -2.632812 7.53125 -2.835938 7.53125 -3.140625 C 7.53125 -3.410156 7.363281 -3.613281 7.03125 -3.75 C 6.695312 -3.894531 6.15625 -4.039062 5.40625 -4.1875 C 4.488281 -4.382812 3.726562 -4.585938 3.125 -4.796875 C 2.53125 -5.015625 2.007812 -5.367188 1.5625 -5.859375 C 1.113281 -6.347656 0.890625 -7.015625 0.890625 -7.859375 C 0.890625 -9.085938 1.363281 -9.992188 2.3125 -10.578125 C 3.269531 -11.171875 4.476562 -11.46875 5.9375 -11.46875 Z M 5.9375 -11.46875 "/></g></g></g><g fill="#000000" fill-opacity="1"><g transform="translate(36.468064, 20.62065)"><g><path d="M 7.25 0 L 7.046875 -1.3125 C 6.703125 -0.84375 6.253906 -0.472656 5.703125 -0.203125 C 5.148438 0.0664062 4.570312 0.203125 3.96875 0.203125 C 2.957031 0.203125 2.203125 -0.0703125 1.703125 -0.625 C 1.203125 -1.1875 0.953125 -1.992188 0.953125 -3.046875 L 0.953125 -8.640625 L 4.203125 -8.640625 L 4.203125 -3.4375 C 4.203125 -3.0625 4.296875 -2.757812 4.484375 -2.53125 C 4.679688 -2.3125 4.957031 -2.203125 5.3125 -2.203125 C 5.707031 -2.203125 6.03125 -2.332031 6.28125 -2.59375 C 6.539062 -2.863281 6.671875 -3.1875 6.671875 -3.5625 L 6.671875 -8.640625 L 9.921875 -8.640625 L 9.921875 0 Z M 7.25 0 "/></g></g></g><g fill="#000000" fill-opacity="1"><g transform="translate(47.390853, 20.62065)"><g><path d="M 4.25 -7.84375 C 4.875 -8.507812 5.6875 -8.84375 6.6875 -8.84375 C 7.851562 -8.84375 8.75 -8.460938 9.375 -7.703125 C 10.007812 -6.941406 10.328125 -5.820312 10.328125 -4.34375 C 10.328125 -2.84375 10.007812 -1.707031 9.375 -0.9375 C 8.75 -0.175781 7.851562 0.203125 6.6875 0.203125 C 5.476562 0.203125 4.5625 -0.273438 3.9375 -1.234375 L 3.65625 0 L 1 0 L 1 -11.875 L 4.25 -11.875 Z M 5.671875 -6.4375 C 5.179688 -6.4375 4.816406 -6.265625 4.578125 -5.921875 C 4.335938 -5.578125 4.21875 -5.128906 4.21875 -4.578125 L 4.21875 -4.046875 C 4.21875 -3.492188 4.335938 -3.046875 4.578125 -2.703125 C 4.816406 -2.367188 5.179688 -2.203125 5.671875 -2.203125 C 6.609375 -2.203125 7.078125 -2.757812 7.078125 -3.875 L 7.078125 -4.75 C 7.078125 -5.875 6.609375 -6.4375 5.671875 -6.4375 Z M 5.671875 -6.4375 "/></g></g></g><g fill="#000000" fill-opacity="1"><g transform="translate(58.313641, 20.62065)"><g><path d="M 12.46875 -8.84375 C 13.445312 -8.84375 14.179688 -8.5625 14.671875 -8 C 15.160156 -7.4375 15.40625 -6.632812 15.40625 -5.59375 L 15.40625 0 L 12.15625 0 L 12.15625 -5.203125 C 12.15625 -5.578125 12.0625 -5.875 11.875 -6.09375 C 11.695312 -6.320312 11.445312 -6.4375 11.125 -6.4375 C 10.738281 -6.4375 10.425781 -6.304688 10.1875 -6.046875 C 9.945312 -5.785156 9.828125 -5.460938 9.828125 -5.078125 L 9.828125 0 L 6.5625 0 L 6.5625 -5.203125 C 6.5625 -5.578125 6.472656 -5.875 6.296875 -6.09375 C 6.117188 -6.320312 5.863281 -6.4375 5.53125 -6.4375 C 5.15625 -6.4375 4.84375 -6.304688 4.59375 -6.046875 C 4.351562 -5.785156 4.234375 -5.460938 4.234375 -5.078125 L 4.234375 0 L 0.984375 0 L 0.984375 -8.640625 L 3.65625 -8.640625 L 3.859375 -7.359375 C 4.191406 -7.816406 4.628906 -8.175781 5.171875 -8.4375 C 5.710938 -8.707031 6.28125 -8.84375 6.875 -8.84375 C 8.175781 -8.84375 9.050781 -8.347656 9.5 -7.359375 C 9.832031 -7.816406 10.265625 -8.175781 10.796875 -8.4375 C 11.328125 -8.707031 11.882812 -8.84375 12.46875 -8.84375 Z M 12.46875 -8.84375 "/></g></g></g><g fill="#000000" fill-opacity="1"><g transform="translate(74.689636, 20.62065)"><g><path d="M 1.09375 -9.65625 L 1.09375 -11.875 L 4.359375 -11.875 L 4.359375 -9.65625 Z M 1.09375 0 L 1.09375 -8.640625 L 4.359375 -8.640625 L 4.359375 0 Z M 1.09375 0 "/></g></g></g><g fill="#000000" fill-opacity="1"><g transform="translate(80.142841, 20.62065)"><g><path d="M 6.75 -8.640625 L 6.75 -6.4375 L 4.90625 -6.4375 L 4.90625 -3.140625 C 4.90625 -2.742188 4.972656 -2.457031 5.109375 -2.28125 C 5.242188 -2.101562 5.484375 -2.015625 5.828125 -2.015625 L 6.75 -2.015625 L 6.75 -0.09375 C 6.488281 -0.0078125 6.148438 0.0546875 5.734375 0.109375 C 5.316406 0.171875 4.957031 0.203125 4.65625 0.203125 C 3.6875 0.203125 2.941406 0.03125 2.421875 -0.3125 C 1.910156 -0.664062 1.65625 -1.265625 1.65625 -2.109375 L 1.65625 -6.4375 L 0.4375 -6.4375 L 0.4375 -8.640625 L 1.78125 -8.640625 L 2.484375 -11.265625 L 4.90625 -11.265625 L 4.90625 -8.640625 Z M 6.75 -8.640625 "/></g></g></g><g fill="#000000" fill-opacity="1"><g transform="translate(87.413781, 20.62065)"><g><path d="M 5.953125 -2.703125 L 11.3125 -2.703125 L 11.3125 0 L 0.390625 0 L 0.390625 -1.15625 L 5.609375 -8.5625 L 0.78125 -8.5625 L 0.78125 -11.265625 L 11.1875 -11.265625 L 11.1875 -10.109375 Z M 5.953125 -2.703125 "/></g></g></g></svg>