<svg xmlns="http://www.w3.org/2000/svg" xmlns:xlink="http://www.w3.org/1999/xlink" width="60" zoomAndPan="magnify" viewBox="0 0 45 44.999999" height="60" preserveAspectRatio="xMidYMid meet" version="1.0"><defs><clipPath id="d27776712b"><path d="M 22.371094 0 L 35.445312 0 L 35.445312 14.960938 L 22.371094 14.960938 Z M 22.371094 0 " clip-rule="nonzero"/></clipPath><clipPath id="c0c93f8836"><path d="M 35.445312 7.46875 L 22.371094 14.941406 L 22.371094 0 Z M 35.445312 7.46875 " clip-rule="nonzero"/></clipPath><clipPath id="a4019e8250"><path d="M 9.398438 0.078125 L 22.46875 0.078125 L 22.46875 15.039062 L 9.398438 15.039062 Z M 9.398438 0.078125 " clip-rule="nonzero"/></clipPath><clipPath id="184ecdd5fe"><path d="M 9.398438 7.570312 L 22.46875 0.0976562 L 22.46875 15.039062 Z M 9.398438 7.570312 " clip-rule="nonzero"/></clipPath><clipPath id="8454516f6e"><path d="M 9 7 L 23 7 L 23 23 L 9 23 Z M 9 7 " clip-rule="nonzero"/></clipPath><clipPath id="2685cb13a6"><path d="M 2.996094 11.160156 L 15.960938 3.6875 L 22.488281 15.015625 L 9.527344 22.488281 Z M 2.996094 11.160156 " clip-rule="nonzero"/></clipPath><clipPath id="188e1d8643"><path d="M 9.46875 7.429688 L 22.46875 15.023438 L 9.527344 22.488281 Z M 9.46875 7.429688 " clip-rule="nonzero"/></clipPath><clipPath id="63223effef"><path d="M 9.496094 14.820312 L 22.570312 14.820312 L 22.570312 29.78125 L 9.496094 29.78125 Z M 9.496094 14.820312 " clip-rule="nonzero"/></clipPath><clipPath id="b16ea92e64"><path d="M 9.496094 22.3125 L 22.570312 14.839844 L 22.570312 29.78125 Z M 9.496094 22.3125 " clip-rule="nonzero"/></clipPath><clipPath id="d5dc1a1996"><path d="M 22.46875 14.839844 L 35.542969 14.839844 L 35.542969 29.804688 L 22.46875 29.804688 Z M 22.46875 14.839844 " clip-rule="nonzero"/></clipPath><clipPath id="5f2b48a010"><path d="M 35.542969 22.3125 L 22.46875 29.78125 L 22.46875 14.839844 Z M 35.542969 22.3125 " clip-rule="nonzero"/></clipPath><clipPath id="12c0ea101d"><path d="M 22.46875 22.191406 L 35.542969 22.191406 L 35.542969 37.152344 L 22.46875 37.152344 Z M 22.46875 22.191406 " clip-rule="nonzero"/></clipPath><clipPath id="a585a67059"><path d="M 22.46875 29.683594 L 35.542969 22.210938 L 35.542969 37.152344 Z M 22.46875 29.683594 " clip-rule="nonzero"/></clipPath><clipPath id="da48a706f6"><path d="M 22 29 L 36 29 L 36 45 L 22 45 Z M 22 29 " clip-rule="nonzero"/></clipPath><clipPath id="914fc62a99"><path d="M 16.015625 33.351562 L 28.871094 25.695312 L 35.5625 36.925781 L 22.707031 44.582031 Z M 16.015625 33.351562 " clip-rule="nonzero"/></clipPath><clipPath id="867d76c412"><path d="M 22.4375 29.527344 L 35.542969 36.9375 L 22.707031 44.582031 Z M 22.4375 29.527344 " clip-rule="nonzero"/></clipPath><clipPath id="128381c166"><path d="M 9 29 L 23 29 L 23 45 L 9 45 Z M 9 29 " clip-rule="nonzero"/></clipPath><clipPath id="2139557d3a"><path d="M 9.835938 45 L 9.394531 30.042969 L 22.464844 29.660156 L 22.902344 44.617188 Z M 9.835938 45 " clip-rule="nonzero"/></clipPath><clipPath id="842e7b9d03"><path d="M 9.617188 37.53125 L 22.464844 29.683594 L 22.902344 44.617188 Z M 9.617188 37.53125 " clip-rule="nonzero"/></clipPath></defs><g clip-path="url(#d27776712b)"><g clip-path="url(#c0c93f8836)"><path fill="#eecdfc" d="M 35.445312 0 L 35.445312 14.960938 L 22.371094 14.960938 L 22.371094 0 Z M 35.445312 0 " fill-opacity="1" fill-rule="nonzero"/></g></g><g clip-path="url(#a4019e8250)"><g clip-path="url(#184ecdd5fe)"><path fill="#db95f7" d="M 9.398438 15.039062 L 9.398438 0.078125 L 22.46875 0.078125 L 22.46875 15.039062 Z M 9.398438 15.039062 " fill-opacity="1" fill-rule="nonzero"/></g></g><g clip-path="url(#8454516f6e)"><g clip-path="url(#2685cb13a6)"><g clip-path="url(#188e1d8643)"><path fill="#ce62f4" d="M 2.996094 11.160156 L 15.960938 3.6875 L 22.488281 15.015625 L 9.527344 22.488281 Z M 2.996094 11.160156 " fill-opacity="1" fill-rule="nonzero"/></g></g></g><g clip-path="url(#63223effef)"><g clip-path="url(#b16ea92e64)"><path fill="#bd3cf2" d="M 9.496094 29.78125 L 9.496094 14.820312 L 22.570312 14.820312 L 22.570312 29.78125 Z M 9.496094 29.78125 " fill-opacity="1" fill-rule="nonzero"/></g></g><g clip-path="url(#d5dc1a1996)"><g clip-path="url(#5f2b48a010)"><path fill="#ae29ed" d="M 35.542969 14.839844 L 35.542969 29.804688 L 22.46875 29.804688 L 22.46875 14.839844 Z M 35.542969 14.839844 " fill-opacity="1" fill-rule="nonzero"/></g></g><g clip-path="url(#12c0ea101d)"><g clip-path="url(#a585a67059)"><path fill="#9f1ed4" d="M 22.46875 37.152344 L 22.46875 22.191406 L 35.542969 22.191406 L 35.542969 37.152344 Z M 22.46875 37.152344 " fill-opacity="1" fill-rule="nonzero"/></g></g><g clip-path="url(#da48a706f6)"><g clip-path="url(#914fc62a99)"><g clip-path="url(#867d76c412)"><path fill="#761ba7" d="M 16.015625 33.351562 L 28.871094 25.695312 L 35.5625 36.925781 L 22.707031 44.582031 Z M 16.015625 33.351562 " fill-opacity="1" fill-rule="nonzero"/></g></g></g><g clip-path="url(#128381c166)"><g clip-path="url(#2139557d3a)"><g clip-path="url(#842e7b9d03)"><path fill="#58167c" d="M 9.835938 45 L 9.394531 30.042969 L 22.464844 29.660156 L 22.902344 44.617188 Z M 9.835938 45 " fill-opacity="1" fill-rule="nonzero"/></g></g></g></svg>